#!OML:ASF F:\VICON\USERDATA\INSTALL\Justin_Nancy\Justin_Nancy.ASF
:FULLY-SPECIFIED
:DEGREES
112
root -9.62956 16.6481 12.6635 -129.997 -78.0832 147.421
lowerback 13.9745 -2.03854 -5.57919
upperback 1.7229 -3.42961 3.57911
thorax -5.45011 -1.58428 7.62164
lowerneck -15.8973 1.91636 -6.62629
upperneck 12.3395 3.78025 1.9011
head 6.19007 1.66452 2.04589
rclavicle -2.50469e-014 -1.98785e-014
rhumerus -60.6709 4.22759 -80.5514
rradius 112.7
rwrist -1.84994
rhand -13.56 24.3648
rfingers 7.12502
rthumb 12.5534 -5.2381
lclavicle -2.50469e-014 -1.98785e-014
lhumerus -35.0281 -1.4421 83.3575
lradius 112.677
lwrist 25.8101
lhand -19.8808 4.64618
lfingers 7.12502
lthumb 6.45493 34.5278
rfemur -58.6083 -17.6812 43.0927
rtibia 69.5259
rfoot -12.7667 10.2794
rtoes -18.0518
lfemur 3.53817 -0.756189 -17.9543
ltibia 22.0005
lfoot 0.562197 0.577581
ltoes -36.767
113
root -10.0386 16.7332 12.7533 -133.219 -77.2441 150.747
lowerback 13.8747 -1.88783 -5.52196
upperback 1.69825 -3.22786 3.31892
thorax -5.47414 -1.48432 7.26594
lowerneck -16.7123 2.01391 -7.14841
upperneck 13.584 3.90002 3.16121
head 6.68038 1.77886 2.58552
rclavicle 1.35174e-014 -3.10104e-014
rhumerus -61.3979 5.02684 -81.6156
rradius 112.842
rwrist -1.63799
rhand -13.2338 24.4704
rfingers 7.12502
rthumb 12.8678 -5.1129
lclavicle 1.35174e-014 -3.10104e-014
lhumerus -35.6027 -2.12836 83.4634
lradius 112.661
lwrist 27.1941
lhand -18.6176 4.39622
lfingers 7.12502
lthumb 7.67429 34.237
rfemur -57.2599 -16.4781 43.751
rtibia 64.9994
rfoot -10.3417 10.9966
rtoes -14.1206
lfemur 4.28141 -1.33799 -18.4275
ltibia 21.8033
lfoot 6.78075 0.136437
ltoes -31.3236
114
root -10.4636 16.8639 12.834 -134.567 -76.7488 152.256
lowerback 13.7196 -2.00372 -5.24671
upperback 1.60997 -3.33736 3.17212
thorax -5.48967 -1.53986 6.95962
lowerneck -16.616 2.20728 -7.17318
upperneck 13.6783 4.13086 3.33062
head 6.67656 1.90149 2.66667
rclavicle 5.08889e-014 -2.62396e-014
rhumerus -62.1291 6.18102 -83.0977
rradius 112.639
rwrist 0.389706
rhand -14.9447 24.4676
rfingers 7.12502
rthumb 11.2181 -5.21245
lclavicle 5.08889e-014 -2.62396e-014
lhumerus -36.3964 -2.68897 83.7105
lradius 112.487
lwrist 27.9071
lhand -17.3278 4.33046
lfingers 7.12502
lthumb 8.91903 34.1219
rfemur -55.5573 -14.9952 43.7945
rtibia 60.47
rfoot -8.01001 10.9525
rtoes -18.0347
lfemur 4.65427 -2.49825 -18.8496
ltibia 21.6886
lfoot 14.5816 0.474666
ltoes -25.6498
115
root -10.8759 16.9368 12.9167 -135.111 -75.9231 152.762
lowerback 13.6828 -1.97997 -5.58894
upperback 1.60366 -3.36116 3.04472
thorax -5.46039 -1.54558 7.01995
lowerneck -16.2366 2.31611 -6.91337
upperneck 13.2986 4.24761 2.96549
head 6.49861 1.94646 2.50192
rclavicle 2.8625e-014 4.53229e-014
rhumerus -62.7082 7.31004 -84.1901
rradius 112.59
rwrist 1.90373
rhand -16.1132 24.5327
rfingers 7.12502
rthumb 10.0909 -5.20537
lclavicle 2.8625e-014 4.53229e-014
lhumerus -37.172 -3.26454 84.2645
lradius 112.063
lwrist 27.9291
lhand -17.0059 3.87311
lfingers 7.12502
lthumb 9.22968 33.6511
rfemur -53.6813 -13.9002 43.4984
rtibia 56.3377
rfoot -5.11636 10.7908
rtoes -16.9632
lfemur 4.91898 -3.02509 -19.5762
ltibia 22.0158
lfoot 21.8267 -1.61629
ltoes -13.4916
116
root -11.2817 16.9747 13.0142 -135.072 -75.2972 152.682
lowerback 13.6001 -1.90716 -5.66272
upperback 1.60543 -3.28572 2.74614
thorax -5.43861 -1.50869 6.72122
lowerneck -15.2016 2.24669 -5.53818
upperneck 12.2611 3.93262 1.92947
head 6.06026 1.79496 1.88123
rclavicle -4.6118e-014 -8.74653e-015
rhumerus -63.1799 7.8412 -85.1659
rradius 112.865
rwrist 1.79829
rhand -16.1222 24.871
rfingers 7.12502
rthumb 10.0822 -4.86751
lclavicle -4.6118e-014 -8.74653e-015
lhumerus -37.7527 -4.39537 84.8054
lradius 111.371
lwrist 27.6711
lhand -17.2883 3.75717
lfingers 7.12502
lthumb 8.95719 33.547
rfemur -52.1949 -13.898 43.6278
rtibia 52.7201
rfoot -2.42816 11.1038
rtoes -16.3695
lfemur 4.7519 -3.26253 -20.199
ltibia 23.168
lfoot 26.0691 -5.62134
ltoes -18.1991
117
root -11.6867 17.0176 13.1099 -133.915 -74.8771 151.49
lowerback 13.4153 -1.91152 -5.69264
upperback 1.62471 -3.30107 2.43983
thorax -5.33041 -1.52193 6.39763
lowerneck -15.754 2.24333 -6.29987
upperneck 13.0202 3.9739 2.95724
head 6.35392 1.85016 2.3601
rclavicle 4.77083e-015 6.36111e-015
rhumerus -63.5275 8.07016 -86.3945
rradius 113.176
rwrist 1.45017
rhand -16.0248 25.0956
rfingers 7.12502
rthumb 10.1762 -4.63824
lclavicle 4.77083e-015 6.36111e-015
lhumerus -38.1704 -5.45921 85.385
lradius 110.415
lwrist 27.4243
lhand -17.2587 3.43228
lfingers 7.12502
lthumb 8.98568 33.2209
rfemur -50.911 -14.1477 43.5565
rtibia 49.7038
rfoot -0.388845 11.683
rtoes -15.4085
lfemur 3.96522 -3.25422 -20.7726
ltibia 25.526
lfoot 28.3137 -9.54199
ltoes -16.7651
118
root -12.0898 17.0567 13.2002 -133.404 -74.6569 150.733
lowerback 13.4408 -1.97495 -5.7856
upperback 1.7537 -3.40132 2.47828
thorax -5.18447 -1.58139 6.5044
lowerneck -15.5353 1.98499 -6.40485
upperneck 12.5161 3.65936 2.80133
head 6.17363 1.69011 2.28459
rclavicle -2.06736e-014 -2.8625e-014
rhumerus -63.795 8.6897 -87.5899
rradius 113.619
rwrist 2.26711
rhand -16.5049 25.1036
rfingers 7.12502
rthumb 9.71305 -4.65241
lclavicle -2.06736e-014 -2.8625e-014
lhumerus -38.6092 -5.9187 86.1982
lradius 109.35
lwrist 26.7634
lhand -16.893 3.02214
lfingers 7.12502
lthumb 9.33862 32.7953
rfemur -49.2846 -14.2976 43.4187
rtibia 47.3112
rfoot 0.629746 11.7574
rtoes -15.7243
lfemur 3.10049 -2.67578 -20.9089
ltibia 28.6674
lfoot 31.1422 -12.0566
ltoes -3.02522
119
root -12.4903 17.0892 13.2995 -133.586 -74.7559 150.579
lowerback 13.587 -2.21537 -5.51029
upperback 1.96653 -3.67924 2.79684
thorax -4.99259 -1.74133 6.73454
lowerneck -15.552 1.78577 -6.90651
upperneck 12.0178 3.56514 2.38397
head 6.02378 1.59626 2.21437
rclavicle 4.77083e-015 6.04305e-014
rhumerus -63.7429 9.77552 -88.2874
rradius 114.108
rwrist 3.59638
rhand -15.9172 25.1714
rfingers 7.12502
rthumb 10.28 -4.55738
lclavicle 4.77083e-015 6.04305e-014
lhumerus -39.0987 -5.80592 87.1779
lradius 108.181
lwrist 25.7136
lhand -16.539 2.88267
lfingers 7.12502
lthumb 9.68015 32.6402
rfemur -47.5703 -14.49 43.3959
rtibia 45.5722
rfoot 0.930074 10.9119
rtoes -17.3086
lfemur 2.10694 -2.51804 -20.7916
ltibia 32.3972
lfoot 32.1572 -11.0587
ltoes 3.12504
120
root -12.8885 17.1159 13.3867 -132.544 -74.6791 149.023
lowerback 13.8196 -2.07107 -5.31805
upperback 2.08912 -3.4892 2.50918
thorax -5.04994 -1.65472 6.29517
lowerneck -15.2921 1.47369 -6.55326
upperneck 11.8284 3.09085 2.08103
head 5.9545 1.36101 2.01148
rclavicle 5.56597e-014 -2.14687e-014
rhumerus -63.791 9.54057 -88.8315
rradius 114.74
rwrist 3.66441
rhand -14.4448 25.5098
rfingers 7.12502
rthumb 11.7001 -4.14345
lclavicle 5.56597e-014 -2.14687e-014
lhumerus -39.7558 -7.21814 87.7856
lradius 106.76
lwrist 24.3618
lhand -16.1342 3.29342
lfingers 7.12502
lthumb 10.0707 33.0325
rfemur -45.8698 -14.6818 42.6335
rtibia 44.5186
rfoot 1.66293 9.61224
rtoes -12.8878
lfemur 0.946374 -2.78114 -21.0923
ltibia 36.6959
lfoot 31.4599 -9.33121
ltoes 2.51365
121
root -13.2854 17.1316 13.4709 -129.947 -74.5701 145.902
lowerback 13.9654 -1.99662 -5.49209
upperback 2.21137 -3.43852 2.28356
thorax -5.01152 -1.63428 6.14832
lowerneck -15.2583 1.20038 -6.69216
upperneck 11.8017 2.75903 2.01097
head 5.95529 1.1878 1.98075
rclavicle -3.61788e-014 -6.36111e-015
rhumerus -63.3997 9.86887 -89.0017
rradius 115.283
rwrist 3.06524
rhand -14.3289 25.4784
rfingers 7.12502
rthumb 11.8119 -4.16852
lclavicle -3.61788e-014 -6.36111e-015
lhumerus -40.3385 -8.13337 88.5517
lradius 105.184
lwrist 22.6979
lhand -15.5939 2.79457
lfingers 7.12502
lthumb 10.5919 32.5077
rfemur -44.2475 -14.7888 41.2921
rtibia 44.1531
rfoot 2.49269 8.28968
rtoes 0.124976
lfemur -0.50142 -3.20942 -21.5639
ltibia 41.2636
lfoot 30.9031 -7.49332
ltoes 3.02141
122
root -13.6803 17.1234 13.5636 -128.831 -74.7019 144.333
lowerback 14.0664 -1.99949 -5.35613
upperback 2.30306 -3.42498 2.39918
thorax -4.97232 -1.63573 6.19539
lowerneck -15.2385 1.05795 -7.41081
upperneck 11.8824 2.70243 2.12131
head 5.97027 1.13285 2.1269
rclavicle 6.99722e-014 -3.97569e-015
rhumerus -62.8023 10.2113 -89.4242
rradius 115.613
rwrist 3.18453
rhand -15.3014 25.2177
rfingers 7.12502
rthumb 10.874 -4.48073
lclavicle 6.99722e-014 -3.97569e-015
lhumerus -40.9571 -8.13112 89.6119
lradius 103.422
lwrist 21.1459
lhand -15.4002 2.48908
lfingers 7.12502
lthumb 10.7787 32.1925
rfemur -42.427 -14.9598 40.5969
rtibia 44.2563
rfoot 2.22373 7.77438
rtoes 6.9159
lfemur -2.16093 -3.46871 -21.4591
ltibia 45.9682
lfoot 29.9529 -5.69908
ltoes -0.739892
123
root -14.0844 17.1325 13.633 -129.312 -74.5899 144.248
lowerback 14.1822 -1.84137 -5.20006
upperback 2.51708 -3.20878 2.34477
thorax -4.85153 -1.54664 6.01076
lowerneck -15.136 0.900445 -7.4697
upperneck 11.7851 2.5253 1.89053
head 5.93468 1.02651 2.04397
rclavicle 3.18055e-015 -1.19271e-014
rhumerus -61.9509 10.0606 -90.359
rradius 115.961
rwrist 2.96779
rhand -15.717 25.0192
rfingers 7.12502
rthumb 10.4732 -4.69995
lclavicle 3.18055e-015 -1.19271e-014
lhumerus -41.5769 -8.2034 90.2725
lradius 101.535
lwrist 19.7208
lhand -15.6334 2.54522
lfingers 7.12502
lthumb 10.5538 32.2603
rfemur -40.1031 -14.6056 39.6395
rtibia 44.4189
rfoot 1.28287 7.02464
rtoes 7.39637
lfemur -3.73655 -3.38073 -21.1913
ltibia 50.6361
lfoot 29.0045 -4.1375
ltoes -2.81814
124
root -14.4998 17.164 13.7004 -129.174 -74.7392 143.699
lowerback 14.073 -1.65416 -4.34615
upperback 2.73724 -2.85852 1.87889
thorax -4.67529 -1.40147 4.95342
lowerneck -14.8032 0.54974 -6.43422
upperneck 11.4057 1.86843 1.45088
head 5.80404 0.728677 1.67119
rclavicle 7.95139e-016 2.14687e-014
rhumerus -60.7991 9.10743 -91.4537
rradius 116.539
rwrist 1.26203
rhand -14.7639 24.9852
rfingers 7.12502
rthumb 11.3924 -4.68529
lclavicle 7.95139e-016 2.14687e-014
lhumerus -42.1239 -9.20804 90.4028
lradius 99.59
lwrist 18.8774
lhand -16.3315 2.25302
lfingers 7.12502
lthumb 9.88035 32.0012
rfemur -37.9082 -13.9572 38.3604
rtibia 44.3489
rfoot -0.254217 5.11032
rtoes 11.5431
lfemur -5.78321 -3.6812 -20.7917
ltibia 55.2746
lfoot 28.0843 -3.28069
ltoes -2.86586
125
root -14.8998 17.1501 13.7657 -132.608 -75.232 146.878
lowerback 14.1024 -1.26143 -3.1801
upperback 2.80395 -2.17035 1.94315
thorax -4.74178 -1.07897 4.24107
lowerneck -14.6146 0.25461 -5.99207
upperneck 11.5417 1.38081 1.34385
head 5.83903 0.49994 1.52223
rclavicle -1.03368e-014 3.18055e-015
rhumerus -59.7531 8.72118 -92.1857
rradius 117.079
rwrist -0.219686
rhand -15.7316 24.1367
rfingers 7.12502
rthumb 10.4591 -5.58309
lclavicle -1.03368e-014 3.18055e-015
lhumerus -42.8294 -9.92013 90.9141
lradius 97.5576
lwrist 18.6942
lhand -17.5465 2.04988
lfingers 7.12502
lthumb 8.70796 31.8503
rfemur -35.4277 -12.8672 38.3528
rtibia 43.869
rfoot -2.48902 3.32413
rtoes 13.7164
lfemur -7.88161 -2.99686 -18.8627
ltibia 59.8291
lfoot 26.3845 -3.26638
ltoes -2.46236
